<mxfile host="app.diagrams.net" modified="2024-06-13T22:28:23.185Z" agent="Mozilla/5.0 (Windows NT 10.0; Win64; x64) AppleWebKit/537.36 (KHTML, like Gecko) Chrome/125.0.0.0 Safari/537.36" etag="E1Ujiz9HK2Q5SUQkCdWC" version="24.5.4" type="github">
  <diagram name="Страница — 1" id="Pa7o1rqoNR2MJulHMw20">
    <mxGraphModel dx="840" dy="418" grid="1" gridSize="10" guides="1" tooltips="1" connect="1" arrows="1" fold="1" page="1" pageScale="1" pageWidth="1169" pageHeight="827" math="0" shadow="0">
      <root>
        <mxCell id="0" />
        <mxCell id="1" parent="0" />
        <mxCell id="693QOhRJWuz22ZLLxZQr-6" value="Инициализация" style="rounded=0;whiteSpace=wrap;html=1;movable=1;resizable=1;rotatable=1;deletable=1;editable=1;locked=0;connectable=1;" vertex="1" parent="1">
          <mxGeometry x="465" y="120" width="120" height="70" as="geometry" />
        </mxCell>
        <mxCell id="693QOhRJWuz22ZLLxZQr-7" value="" style="endArrow=none;html=1;rounded=0;movable=1;resizable=1;rotatable=1;deletable=1;editable=1;locked=0;connectable=1;" edge="1" source="693QOhRJWuz22ZLLxZQr-6" parent="1">
          <mxGeometry width="50" height="50" relative="1" as="geometry">
            <mxPoint x="535" y="220" as="sourcePoint" />
            <mxPoint x="585" y="170" as="targetPoint" />
            <Array as="points">
              <mxPoint x="465" y="170" />
            </Array>
          </mxGeometry>
        </mxCell>
        <mxCell id="693QOhRJWuz22ZLLxZQr-8" value="" style="endArrow=none;html=1;rounded=0;exitX=0.5;exitY=1;exitDx=0;exitDy=0;movable=1;resizable=1;rotatable=1;deletable=1;editable=1;locked=0;connectable=1;" edge="1" source="693QOhRJWuz22ZLLxZQr-6" parent="1">
          <mxGeometry width="50" height="50" relative="1" as="geometry">
            <mxPoint x="515" y="220" as="sourcePoint" />
            <mxPoint x="525" y="170" as="targetPoint" />
          </mxGeometry>
        </mxCell>
        <mxCell id="693QOhRJWuz22ZLLxZQr-9" value="Загрузка данных" style="rounded=0;whiteSpace=wrap;html=1;movable=1;resizable=1;rotatable=1;deletable=1;editable=1;locked=0;connectable=1;" vertex="1" parent="1">
          <mxGeometry x="800" y="120" width="120" height="70" as="geometry" />
        </mxCell>
        <mxCell id="693QOhRJWuz22ZLLxZQr-10" value="" style="endArrow=none;html=1;rounded=0;movable=1;resizable=1;rotatable=1;deletable=1;editable=1;locked=0;connectable=1;" edge="1" parent="1" source="693QOhRJWuz22ZLLxZQr-9">
          <mxGeometry width="50" height="50" relative="1" as="geometry">
            <mxPoint x="870" y="220" as="sourcePoint" />
            <mxPoint x="920" y="170" as="targetPoint" />
            <Array as="points">
              <mxPoint x="800" y="170" />
            </Array>
          </mxGeometry>
        </mxCell>
        <mxCell id="693QOhRJWuz22ZLLxZQr-11" value="" style="endArrow=none;html=1;rounded=0;exitX=0.5;exitY=1;exitDx=0;exitDy=0;movable=1;resizable=1;rotatable=1;deletable=1;editable=1;locked=0;connectable=1;" edge="1" parent="1" source="693QOhRJWuz22ZLLxZQr-9">
          <mxGeometry width="50" height="50" relative="1" as="geometry">
            <mxPoint x="850" y="220" as="sourcePoint" />
            <mxPoint x="860" y="170" as="targetPoint" />
          </mxGeometry>
        </mxCell>
        <mxCell id="693QOhRJWuz22ZLLxZQr-27" value="" style="endArrow=classic;html=1;rounded=0;exitX=1;exitY=0.5;exitDx=0;exitDy=0;" edge="1" parent="1" source="693QOhRJWuz22ZLLxZQr-63">
          <mxGeometry width="50" height="50" relative="1" as="geometry">
            <mxPoint x="250" y="158" as="sourcePoint" />
            <mxPoint x="465" y="155" as="targetPoint" />
          </mxGeometry>
        </mxCell>
        <mxCell id="693QOhRJWuz22ZLLxZQr-28" value="" style="endArrow=classic;html=1;rounded=0;entryX=0;entryY=0.5;entryDx=0;entryDy=0;exitX=1;exitY=0.5;exitDx=0;exitDy=0;" edge="1" parent="1" source="693QOhRJWuz22ZLLxZQr-6" target="693QOhRJWuz22ZLLxZQr-9">
          <mxGeometry width="50" height="50" relative="1" as="geometry">
            <mxPoint x="550" y="157" as="sourcePoint" />
            <mxPoint x="801.2" y="159.86" as="targetPoint" />
          </mxGeometry>
        </mxCell>
        <mxCell id="693QOhRJWuz22ZLLxZQr-39" value="Добавление товаров в накладную" style="rounded=0;whiteSpace=wrap;html=1;movable=1;resizable=1;rotatable=1;deletable=1;editable=1;locked=0;connectable=1;" vertex="1" parent="1">
          <mxGeometry x="800" y="370" width="120" height="70" as="geometry" />
        </mxCell>
        <mxCell id="693QOhRJWuz22ZLLxZQr-40" value="" style="endArrow=none;html=1;rounded=0;movable=1;resizable=1;rotatable=1;deletable=1;editable=1;locked=0;connectable=1;" edge="1" source="693QOhRJWuz22ZLLxZQr-39" parent="1">
          <mxGeometry width="50" height="50" relative="1" as="geometry">
            <mxPoint x="870" y="470" as="sourcePoint" />
            <mxPoint x="920" y="420" as="targetPoint" />
            <Array as="points">
              <mxPoint x="800" y="420" />
            </Array>
          </mxGeometry>
        </mxCell>
        <mxCell id="693QOhRJWuz22ZLLxZQr-41" value="" style="endArrow=none;html=1;rounded=0;exitX=0.5;exitY=1;exitDx=0;exitDy=0;movable=1;resizable=1;rotatable=1;deletable=1;editable=1;locked=0;connectable=1;" edge="1" source="693QOhRJWuz22ZLLxZQr-39" parent="1">
          <mxGeometry width="50" height="50" relative="1" as="geometry">
            <mxPoint x="850" y="470" as="sourcePoint" />
            <mxPoint x="860" y="420" as="targetPoint" />
          </mxGeometry>
        </mxCell>
        <mxCell id="693QOhRJWuz22ZLLxZQr-44" value="Создание накладной" style="rounded=0;whiteSpace=wrap;html=1;movable=1;resizable=1;rotatable=1;deletable=1;editable=1;locked=0;connectable=1;" vertex="1" parent="1">
          <mxGeometry x="130" y="370" width="120" height="70" as="geometry" />
        </mxCell>
        <mxCell id="693QOhRJWuz22ZLLxZQr-45" value="" style="endArrow=none;html=1;rounded=0;movable=1;resizable=1;rotatable=1;deletable=1;editable=1;locked=0;connectable=1;" edge="1" source="693QOhRJWuz22ZLLxZQr-44" parent="1">
          <mxGeometry width="50" height="50" relative="1" as="geometry">
            <mxPoint x="200" y="470" as="sourcePoint" />
            <mxPoint x="250" y="420" as="targetPoint" />
            <Array as="points">
              <mxPoint x="130" y="420" />
            </Array>
          </mxGeometry>
        </mxCell>
        <mxCell id="693QOhRJWuz22ZLLxZQr-46" value="" style="endArrow=none;html=1;rounded=0;exitX=0.5;exitY=1;exitDx=0;exitDy=0;movable=1;resizable=1;rotatable=1;deletable=1;editable=1;locked=0;connectable=1;" edge="1" source="693QOhRJWuz22ZLLxZQr-44" parent="1">
          <mxGeometry width="50" height="50" relative="1" as="geometry">
            <mxPoint x="180" y="470" as="sourcePoint" />
            <mxPoint x="190" y="420" as="targetPoint" />
          </mxGeometry>
        </mxCell>
        <mxCell id="693QOhRJWuz22ZLLxZQr-47" value="добавление товаров на склад" style="rounded=0;whiteSpace=wrap;html=1;movable=1;resizable=1;rotatable=1;deletable=1;editable=1;locked=0;connectable=1;" vertex="1" parent="1">
          <mxGeometry x="130" y="620" width="120" height="70" as="geometry" />
        </mxCell>
        <mxCell id="693QOhRJWuz22ZLLxZQr-48" value="" style="endArrow=none;html=1;rounded=0;movable=1;resizable=1;rotatable=1;deletable=1;editable=1;locked=0;connectable=1;" edge="1" source="693QOhRJWuz22ZLLxZQr-47" parent="1">
          <mxGeometry width="50" height="50" relative="1" as="geometry">
            <mxPoint x="200" y="720" as="sourcePoint" />
            <mxPoint x="250" y="670" as="targetPoint" />
            <Array as="points">
              <mxPoint x="130" y="670" />
            </Array>
          </mxGeometry>
        </mxCell>
        <mxCell id="693QOhRJWuz22ZLLxZQr-49" value="" style="endArrow=none;html=1;rounded=0;exitX=0.5;exitY=1;exitDx=0;exitDy=0;movable=1;resizable=1;rotatable=1;deletable=1;editable=1;locked=0;connectable=1;" edge="1" source="693QOhRJWuz22ZLLxZQr-47" parent="1">
          <mxGeometry width="50" height="50" relative="1" as="geometry">
            <mxPoint x="180" y="720" as="sourcePoint" />
            <mxPoint x="190" y="670" as="targetPoint" />
          </mxGeometry>
        </mxCell>
        <mxCell id="693QOhRJWuz22ZLLxZQr-50" value="Проверка позиций накладной" style="rounded=0;whiteSpace=wrap;html=1;movable=1;resizable=1;rotatable=1;deletable=1;editable=1;locked=0;connectable=1;" vertex="1" parent="1">
          <mxGeometry x="465" y="370" width="120" height="70" as="geometry" />
        </mxCell>
        <mxCell id="693QOhRJWuz22ZLLxZQr-51" value="" style="endArrow=none;html=1;rounded=0;movable=1;resizable=1;rotatable=1;deletable=1;editable=1;locked=0;connectable=1;" edge="1" source="693QOhRJWuz22ZLLxZQr-50" parent="1">
          <mxGeometry width="50" height="50" relative="1" as="geometry">
            <mxPoint x="535" y="470" as="sourcePoint" />
            <mxPoint x="585" y="420" as="targetPoint" />
            <Array as="points">
              <mxPoint x="465" y="420" />
            </Array>
          </mxGeometry>
        </mxCell>
        <mxCell id="693QOhRJWuz22ZLLxZQr-52" value="" style="endArrow=none;html=1;rounded=0;exitX=0.5;exitY=1;exitDx=0;exitDy=0;movable=1;resizable=1;rotatable=1;deletable=1;editable=1;locked=0;connectable=1;" edge="1" source="693QOhRJWuz22ZLLxZQr-50" parent="1">
          <mxGeometry width="50" height="50" relative="1" as="geometry">
            <mxPoint x="515" y="470" as="sourcePoint" />
            <mxPoint x="525" y="420" as="targetPoint" />
          </mxGeometry>
        </mxCell>
        <mxCell id="693QOhRJWuz22ZLLxZQr-53" value="" style="endArrow=classic;html=1;rounded=0;entryX=0.5;entryY=0;entryDx=0;entryDy=0;exitX=0.5;exitY=1;exitDx=0;exitDy=0;" edge="1" parent="1" source="693QOhRJWuz22ZLLxZQr-9" target="693QOhRJWuz22ZLLxZQr-39">
          <mxGeometry width="50" height="50" relative="1" as="geometry">
            <mxPoint x="800" y="220" as="sourcePoint" />
            <mxPoint x="960" y="330" as="targetPoint" />
          </mxGeometry>
        </mxCell>
        <mxCell id="693QOhRJWuz22ZLLxZQr-63" value="Управление накладными" style="rounded=0;whiteSpace=wrap;html=1;movable=1;resizable=1;rotatable=1;deletable=1;editable=1;locked=0;connectable=1;" vertex="1" parent="1">
          <mxGeometry x="130" y="120" width="120" height="70" as="geometry" />
        </mxCell>
        <mxCell id="693QOhRJWuz22ZLLxZQr-64" value="" style="endArrow=none;html=1;rounded=0;movable=1;resizable=1;rotatable=1;deletable=1;editable=1;locked=0;connectable=1;" edge="1" source="693QOhRJWuz22ZLLxZQr-63" parent="1">
          <mxGeometry width="50" height="50" relative="1" as="geometry">
            <mxPoint x="200" y="220" as="sourcePoint" />
            <mxPoint x="250" y="170" as="targetPoint" />
            <Array as="points">
              <mxPoint x="130" y="170" />
            </Array>
          </mxGeometry>
        </mxCell>
        <mxCell id="693QOhRJWuz22ZLLxZQr-65" value="" style="endArrow=none;html=1;rounded=0;exitX=0.5;exitY=1;exitDx=0;exitDy=0;movable=1;resizable=1;rotatable=1;deletable=1;editable=1;locked=0;connectable=1;" edge="1" source="693QOhRJWuz22ZLLxZQr-63" parent="1">
          <mxGeometry width="50" height="50" relative="1" as="geometry">
            <mxPoint x="180" y="220" as="sourcePoint" />
            <mxPoint x="190" y="170" as="targetPoint" />
          </mxGeometry>
        </mxCell>
        <mxCell id="693QOhRJWuz22ZLLxZQr-67" value="Управление отображением данных" style="rounded=0;whiteSpace=wrap;html=1;movable=1;resizable=1;rotatable=1;deletable=1;editable=1;locked=0;connectable=1;" vertex="1" parent="1">
          <mxGeometry x="465" y="620" width="120" height="70" as="geometry" />
        </mxCell>
        <mxCell id="693QOhRJWuz22ZLLxZQr-68" value="" style="endArrow=none;html=1;rounded=0;movable=1;resizable=1;rotatable=1;deletable=1;editable=1;locked=0;connectable=1;" edge="1" source="693QOhRJWuz22ZLLxZQr-67" parent="1">
          <mxGeometry width="50" height="50" relative="1" as="geometry">
            <mxPoint x="535" y="720" as="sourcePoint" />
            <mxPoint x="585" y="670" as="targetPoint" />
            <Array as="points">
              <mxPoint x="465" y="670" />
            </Array>
          </mxGeometry>
        </mxCell>
        <mxCell id="693QOhRJWuz22ZLLxZQr-69" value="" style="endArrow=none;html=1;rounded=0;exitX=0.5;exitY=1;exitDx=0;exitDy=0;movable=1;resizable=1;rotatable=1;deletable=1;editable=1;locked=0;connectable=1;" edge="1" source="693QOhRJWuz22ZLLxZQr-67" parent="1">
          <mxGeometry width="50" height="50" relative="1" as="geometry">
            <mxPoint x="515" y="720" as="sourcePoint" />
            <mxPoint x="525" y="670" as="targetPoint" />
          </mxGeometry>
        </mxCell>
        <mxCell id="693QOhRJWuz22ZLLxZQr-70" value="" style="endArrow=classic;html=1;rounded=0;exitX=0;exitY=0.5;exitDx=0;exitDy=0;entryX=1;entryY=0.5;entryDx=0;entryDy=0;" edge="1" parent="1">
          <mxGeometry width="50" height="50" relative="1" as="geometry">
            <mxPoint x="465" y="400" as="sourcePoint" />
            <mxPoint x="250" y="400" as="targetPoint" />
          </mxGeometry>
        </mxCell>
        <mxCell id="693QOhRJWuz22ZLLxZQr-71" value="" style="endArrow=classic;html=1;rounded=0;exitX=0;exitY=0.5;exitDx=0;exitDy=0;entryX=1;entryY=0.5;entryDx=0;entryDy=0;" edge="1" parent="1" source="693QOhRJWuz22ZLLxZQr-74">
          <mxGeometry width="50" height="50" relative="1" as="geometry">
            <mxPoint x="800" y="408" as="sourcePoint" />
            <mxPoint x="585" y="408" as="targetPoint" />
          </mxGeometry>
        </mxCell>
        <mxCell id="693QOhRJWuz22ZLLxZQr-72" value="" style="endArrow=classic;html=1;rounded=0;exitX=1;exitY=0.5;exitDx=0;exitDy=0;entryX=0;entryY=0.5;entryDx=0;entryDy=0;" edge="1" parent="1" source="693QOhRJWuz22ZLLxZQr-47" target="693QOhRJWuz22ZLLxZQr-67">
          <mxGeometry width="50" height="50" relative="1" as="geometry">
            <mxPoint x="580" y="500" as="sourcePoint" />
            <mxPoint x="390" y="630" as="targetPoint" />
          </mxGeometry>
        </mxCell>
        <mxCell id="693QOhRJWuz22ZLLxZQr-73" value="" style="endArrow=classic;html=1;rounded=0;entryX=0.5;entryY=0;entryDx=0;entryDy=0;exitX=0.5;exitY=1;exitDx=0;exitDy=0;" edge="1" parent="1">
          <mxGeometry width="50" height="50" relative="1" as="geometry">
            <mxPoint x="189.33000000000004" y="440" as="sourcePoint" />
            <mxPoint x="189.33000000000004" y="620" as="targetPoint" />
          </mxGeometry>
        </mxCell>
        <mxCell id="693QOhRJWuz22ZLLxZQr-75" value="" style="endArrow=classic;html=1;rounded=0;exitX=0;exitY=0.5;exitDx=0;exitDy=0;entryX=1;entryY=0.5;entryDx=0;entryDy=0;" edge="1" parent="1" target="693QOhRJWuz22ZLLxZQr-74">
          <mxGeometry width="50" height="50" relative="1" as="geometry">
            <mxPoint x="800" y="408" as="sourcePoint" />
            <mxPoint x="585" y="408" as="targetPoint" />
          </mxGeometry>
        </mxCell>
        <mxCell id="693QOhRJWuz22ZLLxZQr-77" value="" style="group" vertex="1" connectable="0" parent="1">
          <mxGeometry x="675" y="390" width="36" height="36" as="geometry" />
        </mxCell>
        <mxCell id="693QOhRJWuz22ZLLxZQr-74" value="&amp;amp;" style="whiteSpace=wrap;html=1;aspect=fixed;" vertex="1" parent="693QOhRJWuz22ZLLxZQr-77">
          <mxGeometry width="36" height="36" as="geometry" />
        </mxCell>
        <mxCell id="693QOhRJWuz22ZLLxZQr-76" value="" style="endArrow=none;html=1;rounded=0;entryX=0.25;entryY=0;entryDx=0;entryDy=0;exitX=0.25;exitY=1;exitDx=0;exitDy=0;" edge="1" parent="693QOhRJWuz22ZLLxZQr-77" source="693QOhRJWuz22ZLLxZQr-74" target="693QOhRJWuz22ZLLxZQr-74">
          <mxGeometry width="50" height="50" relative="1" as="geometry">
            <mxPoint x="70" y="46" as="sourcePoint" />
            <mxPoint x="120" y="-4" as="targetPoint" />
          </mxGeometry>
        </mxCell>
        <mxCell id="693QOhRJWuz22ZLLxZQr-78" value="SQL запрос" style="text;html=1;align=center;verticalAlign=middle;resizable=0;points=[];autosize=1;strokeColor=none;fillColor=none;" vertex="1" parent="1">
          <mxGeometry x="715" y="380" width="90" height="30" as="geometry" />
        </mxCell>
        <mxCell id="693QOhRJWuz22ZLLxZQr-79" value="Проверка" style="text;html=1;align=center;verticalAlign=middle;resizable=0;points=[];autosize=1;strokeColor=none;fillColor=none;" vertex="1" parent="1">
          <mxGeometry x="585" y="380" width="80" height="30" as="geometry" />
        </mxCell>
        <mxCell id="693QOhRJWuz22ZLLxZQr-81" value="Проверка не выполнена, добавьте товары" style="text;html=1;align=center;verticalAlign=middle;resizable=0;points=[];autosize=1;strokeColor=none;fillColor=none;" vertex="1" parent="1">
          <mxGeometry x="260" y="438" width="260" height="30" as="geometry" />
        </mxCell>
      </root>
    </mxGraphModel>
  </diagram>
</mxfile>
